<mxfile host="app.diagrams.net" agent="Mozilla/5.0 (Windows NT 10.0; Win64; x64) AppleWebKit/537.36 (KHTML, like Gecko) Chrome/136.0.0.0 Safari/537.36" version="27.1.1">
  <diagram name="CBK BPMN Model" id="cbk_bpmn_model">
    <mxGraphModel dx="1426" dy="743" grid="1" gridSize="10" guides="1" tooltips="1" connect="1" arrows="1" fold="1" page="1" pageScale="1" pageWidth="827" pageHeight="1169" background="#8ABDFF" math="0" shadow="1">
      <root>
        <mxCell id="0" />
        <mxCell id="1" parent="0" />
        <mxCell id="pool1" value="CBK Mobilization Process" style="swimlane;horizontal=1;" parent="1" vertex="1">
          <mxGeometry x="20" y="20" width="1400" height="600" as="geometry" />
        </mxCell>
        <mxCell id="lane1" value="Researcher" style="swimlane;horizontal=1;" parent="pool1" vertex="1">
          <mxGeometry width="1400" height="100" as="geometry" />
        </mxCell>
        <mxCell id="task10" value="Create Biomedical Knowledge" style="rounded=1;whiteSpace=wrap;html=1;" parent="lane1" vertex="1">
          <mxGeometry x="60" y="20" width="180" height="60" as="geometry" />
        </mxCell>
        <mxCell id="lane2" value="Knowledge Engineer" style="swimlane;horizontal=1;" parent="pool1" vertex="1">
          <mxGeometry y="100" width="1400" height="100" as="geometry" />
        </mxCell>
        <mxCell id="task11" value="Validate &amp; Standardize CBK" style="rounded=1;whiteSpace=wrap;html=1;" parent="lane2" vertex="1">
          <mxGeometry x="260" y="20" width="180" height="60" as="geometry" />
        </mxCell>
        <mxCell id="task12" value="Upload CBK to Repository" style="rounded=1;whiteSpace=wrap;html=1;" parent="lane2" vertex="1">
          <mxGeometry x="460" y="20" width="180" height="60" as="geometry" />
        </mxCell>
        <mxCell id="lane3" value="CBK Repository" style="swimlane;horizontal=1;" parent="pool1" vertex="1">
          <mxGeometry y="200" width="1400" height="100" as="geometry" />
        </mxCell>
        <mxCell id="task13" value="Store &amp; Index CBK" style="rounded=1;whiteSpace=wrap;html=1;" parent="lane3" vertex="1">
          <mxGeometry x="660" y="20" width="180" height="60" as="geometry" />
        </mxCell>
        <mxCell id="lane4" value="CDSS" style="swimlane;horizontal=1;" parent="pool1" vertex="1">
          <mxGeometry y="300" width="1400" height="100" as="geometry" />
        </mxCell>
        <mxCell id="task14" value="Retrieve CBK from Repository" style="rounded=1;whiteSpace=wrap;html=1;" parent="lane4" vertex="1">
          <mxGeometry x="860" y="20" width="180" height="60" as="geometry" />
        </mxCell>
        <mxCell id="task15" value="Trigger Clinical Decision Support" style="rounded=1;whiteSpace=wrap;html=1;" parent="lane4" vertex="1">
          <mxGeometry x="1060" y="20" width="180" height="60" as="geometry" />
        </mxCell>
        <mxCell id="lane5" value="Healthcare Provider" style="swimlane;horizontal=1;" parent="pool1" vertex="1">
          <mxGeometry y="400" width="1400" height="100" as="geometry" />
        </mxCell>
        <mxCell id="task16" value="Review &amp; Act on Recommendation" style="rounded=1;whiteSpace=wrap;html=1;" parent="lane5" vertex="1">
          <mxGeometry x="1260" y="20" width="180" height="60" as="geometry" />
        </mxCell>
        <mxCell id="task17" value="Submit Outcome Feedback" style="rounded=1;whiteSpace=wrap;html=1;" parent="lane5" vertex="1">
          <mxGeometry x="1460" y="20" width="180" height="60" as="geometry" />
        </mxCell>
      </root>
    </mxGraphModel>
  </diagram>
</mxfile>
